<?xml version="1.0" encoding="utf-8" standalone="no"?>
<svg version="1.1" viewBox="0 0 200 12" xmlns="http://www.w3.org/2000/svg">
  <g style="fill:#ffffff">
    <rect style="opacity:0" width="200" height="12"/>
    <path style="opacity:0.4" d="m 0,0 h 200 v 10.964 c -3.126,0.087 -3.564,-1.062 -5,-1 -1.434,0.064 -1.897,0.644 -3.394,1 -1.497,0.335 -3.972,1.051 -5.607,1 -1.635,-0.0565 -2.5,-0.659 -4,-1 -1.5,-0.34 -3.491,-0.851 -5,-1 -1.508,-0.149 -2.865,-0.2 -4,0 -1.134,0.2 -1.402,0.629 -2.733,1 -1.33,0.335 -3.322,1.126 -5.269,1 -1.943,-0.13 -3.451,-1.725 -6,-2 -2.551,-0.271 -6.841,0.61 -9,1 -2.162,0.384 -2.271,0.923 -4,1 -1.727,0.072 -4.752,-0.881 -6.179,-1 -1.425,-0.113 -1.531,0.157 -2.321,0 -0.79,-0.158 -1.311,-1 -2.321,-0.961 -1,0.04 -2.971,-0.226 -4.18,0 -1.209,0.19 -1.504,0.625 -3,1 C 126.5,11.371 125,12 122,12 c -3,0 -8.553,-0.6855 -9,-1 -0.446,-0.313 -5.847,-0.15 -8,0 -2.154,0.151 -1.795,-2.411 -6,-1 -2,0 -6.928,1.476 -10.106,1.149 C 85.746,10.789 85,9.966 81,8.972 77,7.974 77,5.981 74,6.977 71,7.9755 71,7.9755 69,7.9755 c -2,0 -4,-1 -6,0 -2,1 -8,3 -8,3 h -3 c -5,0 -2.9555,-1.864 -9,0 -3,1 -4.35,-2.414 -6.35,-2.414 0,0 -3.243,0.546 -6.652,0.422 -2.217,-0.085 -3,-2 -6,-1 -3,1 -2.045,2.034 -5,3 0,0 -3.318,0.659 -5,0.659 -1.682,0 -5,-0.659 -5,-0.659 C 6.0245,10.569 7.623,9.68 4.637,10.678 2,11.959 0,11.959 0,11.959 z"/>
    <path style="opacity:0.6" d="m 0,0 h 200 v 6.976 c 0,0 -2.69,0.755 -3.6,0.667 -0.9095,-0.087 -0.961,-0.388 -1.694,-0.667 -0.733,-0.279 -1.546,-1.25 -2.707,-1 -1.1605,0.253 -2.302,1.21 -2.643,1.21 -1,0 -1.357,-0.2135 -2.357,-1.21 -1,-1 -2.626,-0.323 -4,0 -1.374,0.323 -2.498,0.812 -4,1 -1.502,0.184 -3.153,0.517 -4.496,0 -1.343,-0.517 -1.504,-2 -3.504,-2 -3,1 -3,1 -5,1 -1.221,-0.0945 -3.354,2.061 -5,2 -1.641,-0.068 -2.509,-2 -4,-2 -1.491,0 -2.4635,1.632 -4,2 -1.536,0.3615 -3.325,-0.165 -5,0 -1.675,0.165 -3.3585,1.3675 -5,1 -1.641,-0.371 -2.657,-2.772 -4,-2.987 -1.343,-0.217 -1.787,0.95 -3,1 -1.213,0.046 -2.626,-1 -4,-1 -1.374,0 -2.417,0.583 -4,1 -1.583,0.412 -3.224,1.35 -5.491,1.504 -2.267,0.153 -5.509,-0.507 -7.509,-1.504 -2,-1 -3.419,-1.886 -5,-2 -1.581,-0.107 -2,1.044 -4,1 l -4.053,-0.095 C 100.946,5.862 99.6735,5.507 98,4.983 94.983,4.037 94,3.986 92,3.986 c -2,0 -3,1 -5,1 -2,0 -2,-1 -5,-1 H 76 c 0,0 -3.894,-0.607 -6.0535,-0.534 -2.1595,0.073 -6.8035,1.068 -6.8035,1.068 -1.976,0.31 -3.9285,-0.178 -4.821,0.374 -0.85,0.525 -0.321,1.0855 -3.321,1.0855 -3,0 0,2 -7,1 C 41,5.979 41,4.982 39,4.982 h -10 c -5,0 -9,1 -11,0 -3,-1 -6,-1 -7,0 C 10,5.979 5,5.979 4,5.979 3,5.979 0,6.974 0,6.976 z"/>
    <path d="m 0,0 h 200 v 3 c -2,0 -1.369,0.44 -3.369,0.44 -2,0 -1.94,-0.9265 -3.631,-1.437 -1.692,-0.51 -6.631,0 -7,0 -0.369,0 -4.13,1 -5.183,1 -1.052,0 -2.265,-1.093 -3.817,-1 -1.552,0.096 -3.309,0.852 -5,1 -1.691,0.144 -3,-0.275 -4.693,0 -1.795,0.275 -3.093,-1.258 -5.306,-1 -2.214,0.262 -4.973,1.279 -7,1 -2.027,-0.283 -3.393,1.147 -5,1 -1.607,-0.151 -3.117,-1.185 -4.601,-0.871 -1.484,0.3145 -3.473,-0.318 -5.4,-0.126 -1.926,0.192 -3.909,1.252 -6,1 -2.091,-0.255 -4.121,-1 -6,-1 -1.879,0 -2.796,0.824 -4.495,0.871 -1.098,0.03 -2.187,-0.561 -3.578,-0.8 -1.593,-0.272 -2.432,0.09 -3.928,-0.072 -1.496,-0.161 -4,-1 -5,-1 -1,0 -7.828,0.489 -9,0.489 -1.172,0 -3.456,-0.145 -4.958,-0.206 C 95.539,2.215 94.179,2.2265 93,2 91.82,1.76 91.178,1.187 90,1 c -1.179,-0.191 -2.657,-0.165 -4,0 -1.344,0.165 -2.325,0.791 -4,1 -1.6745,0.205 -4.493,0.244 -6,0 C 74.492,1.749 73.455,1.352 72.464,1.219 71.473,1.086 67,1 67,1 c 0,0 -2.7455,0.102 -4.089,0.267 -1.344,0.165 -2.587,0.607 -3.911,0.73 -1.324,0.122 -2.988,-0.238 -4,0 -1.0115,0.238 -1.151,0.797 -2,1 -0.849,0.2 -3,0 -3,0 -1,0 -2.535,-1.265 -7,-1 -4.465,0.269 -4.084,0.7547 -6.126,1.1325 C 35.89,3.307 30,2.9895 29,2 28,1 26.374,1 25,1 c -1.374,0 -2.491,0.811 -4,1 -1.509,0.185 -3.159,0.152 -5,0 C 14.159,1.841 11.536,0.876 10,1 8.464,1.1165 8.331,1.641 7,2 5.669,2.345 3.177,2.873 2,2.9895 0.823,3.1055 0,2.9895 0,2.9895 z"/>
  </g>
</svg>
