<?xml version="1.0" encoding="utf-8" standalone="no"?>
<svg version="1.1" viewBox="0 0 200 12" xmlns="http://www.w3.org/2000/svg">
  <rect style="fill:none;opacity:0" width="200" height="12"/>
  <g style="fill:#ffffff">
    <path style="opacity:0.4" d="m 0 0 h 200 v 10.96 c -3.13 0.09 -3.56 -1.06 -5 -1 -1.43 0.06 -1.9 0.64 -3.39 1 -1.5 0.34 -3.97 1.05 -5.61 1 -1.64 -0.06 -2.5 -0.66 -4 -1 -1.5 -0.34 -3.49 -0.85 -5 -1 -1.51 -0.15 -2.87 -0.2 -4 0 -1.13 0.2 -1.4 0.63 -2.73 1 -1.33 0.34 -3.32 1.13 -5.27 1 -1.94 -0.13 -3.45 -1.73 -6 -2 -2.55 -0.27 -6.84 0.61 -9 1 -2.16 0.38 -2.27 0.92 -4 1 -1.73 0.07 -4.75 -0.88 -6.18 -1 -1.43 -0.11 -1.53 0.16 -2.32 0 -0.79 -0.16 -1.31 -1 -2.32 -0.96 -1 0.04 -2.97 -0.23 -4.18 0 -1.21 0.19 -1.5 0.62 -3 1 C 126.5 11.37 125 12 122 12 c -3 0 -8.55 -0.69 -9 -1 -0.45 -0.31 -5.85 -0.15 -8 0 -2.15 0.15 -1.79 -2.41 -6 -1 -2 0 -6.93 1.48 -10.11 1.15 C 85.75 10.79 85 9.97 81 8.97 77 7.97 77 5.98 74 6.98 71 7.98 71 7.98 69 7.98 c -2 0 -4 -1 -6 0 -2 1 -8 3 -8 3 h -3 c -5 0 -2.96 -1.86 -9 0 -3 1 -4.35 -2.41 -6.35 -2.41 0 0 -3.24 0.55 -6.65 0.42 -2.22 -0.09 -3 -2 -6 -1 -3 1 -2.04 2.03 -5 3 0 0 -3.32 0.66 -5 0.66 -1.68 0 -5 -0.66 -5 -0.66 C 6.02 10.57 7.62 9.68 4.64 10.68 2 11.96 0 11.96 0 11.96 z"/>
    <path style="opacity:0.6" d="m 0 0 h 200 v 6.98 c 0 0 -2.69 0.76 -3.6 0.67 -0.91 -0.09 -0.96 -0.39 -1.69 -0.67 -0.73 -0.28 -1.55 -1.25 -2.71 -1 -1.16 0.25 -2.3 1.21 -2.64 1.21 -1 0 -1.36 -0.21 -2.36 -1.21 -1 -1 -2.63 -0.32 -4 0 -1.37 0.32 -2.5 0.81 -4 1 -1.5 0.18 -3.15 0.52 -4.5 0 -1.34 -0.52 -1.5 -2 -3.5 -2 -3 1 -3 1 -5 1 -1.22 -0.09 -3.35 2.06 -5 2 -1.64 -0.07 -2.51 -2 -4 -2 -1.49 0 -2.46 1.63 -4 2 -1.54 0.36 -3.33 -0.17 -5 0 -1.68 0.17 -3.36 1.37 -5 1 -1.64 -0.37 -2.66 -2.77 -4 -2.99 -1.34 -0.22 -1.79 0.95 -3 1 -1.21 0.05 -2.63 -1 -4 -1 -1.37 0 -2.42 0.58 -4 1 -1.58 0.41 -3.22 1.35 -5.49 1.5 -2.27 0.15 -5.51 -0.51 -7.51 -1.5 -2 -1 -3.42 -1.89 -5 -2 -1.58 -0.11 -2 1.04 -4 1 l -4.05 -0.1 C 100.95 5.86 99.67 5.51 98 4.98 94.98 4.04 94 3.99 92 3.99 c -2 0 -3 1 -5 1 -2 0 -2 -1 -5 -1 H 76 c 0 0 -3.89 -0.61 -6.05 -0.53 -2.16 0.07 -6.8 1.07 -6.8 1.07 -1.98 0.31 -3.93 -0.18 -4.82 0.37 -0.85 0.53 -0.32 1.09 -3.32 1.09 -3 0 0 2 -7 1 C 41 5.98 41 4.98 39 4.98 h -10 c -5 0 -9 1 -11 0 -3 -1 -6 -1 -7 0 C 10 5.98 5 5.98 4 5.98 3 5.98 0 6.97 0 6.98 z"/>
    <path d="m 0 0 h 200 v 3 c -2 0 -1.37 0.44 -3.37 0.44 -2 0 -1.94 -0.93 -3.63 -1.44 -1.69 -0.51 -6.63 0 -7 0 -0.37 0 -4.13 1 -5.18 1 -1.05 0 -2.27 -1.09 -3.82 -1 -1.55 0.1 -3.31 0.85 -5 1 -1.69 0.14 -3 -0.28 -4.69 0 -1.79 0.28 -3.09 -1.26 -5.31 -1 -2.21 0.26 -4.97 1.28 -7 1 -2.03 -0.28 -3.39 1.15 -5 1 -1.61 -0.15 -3.12 -1.19 -4.6 -0.87 -1.48 0.31 -3.47 -0.32 -5.4 -0.13 -1.93 0.19 -3.91 1.25 -6 1 -2.09 -0.26 -4.12 -1 -6 -1 -1.88 0 -2.8 0.82 -4.5 0.87 -1.1 0.03 -2.19 -0.56 -3.58 -0.8 -1.59 -0.27 -2.43 0.09 -3.93 -0.07 -1.5 -0.16 -4 -1 -5 -1 -1 0 -7.83 0.49 -9 0.49 -1.17 0 -3.46 -0.14 -4.96 -0.21 C 95.54 2.21 94.18 2.23 93 2 91.82 1.76 91.18 1.19 90 1 c -1.18 -0.19 -2.66 -0.17 -4 0 -1.34 0.17 -2.33 0.79 -4 1 -1.67 0.2 -4.49 0.24 -6 0 C 74.49 1.75 73.45 1.35 72.46 1.22 71.47 1.09 67 1 67 1 c 0 0 -2.75 0.1 -4.09 0.27 -1.34 0.17 -2.59 0.61 -3.91 0.73 -1.32 0.12 -2.99 -0.24 -4 0 -1.01 0.24 -1.15 0.8 -2 1 -0.85 0.2 -3 0 -3 0 -1 0 -2.54 -1.26 -7 -1 -4.46 0.27 -4.08 0.75 -6.13 1.13 C 35.89 3.31 30 2.99 29 2 28 1 26.37 1 25 1 c -1.37 0 -2.49 0.81 -4 1 -1.51 0.18 -3.16 0.15 -5 0 C 14.16 1.84 11.54 0.88 10 1 8.46 1.12 8.33 1.64 7 2 5.67 2.35 3.18 2.87 2 2.99 0.82 3.11 0 2.99 0 2.99 z"/>
  </g>
</svg>
