<?xml version="1.0" encoding="UTF-8" standalone="no"?>
<svg
   xmlns="http://www.w3.org/2000/svg"
   xmlns:sodipodi="http://sodipodi.sourceforge.net/DTD/sodipodi-0.dtd"
   xmlns:inkscape="http://www.inkscape.org/namespaces/inkscape"
   width="200"
   height="12"
   viewBox="0 0 52.916666 3.1750002"
   version="1.1"
   inkscape:version="0.92.4 (unknown)"
   sodipodi:docname="edge.svg">
  <g
     inkscape:groupmode="layer"
     transform="translate(0,-293.82496)">
    <path
       style="opacity:0.4;fill:#ffffff;fill-opacity:1;fill-rule:evenodd;stroke:none;stroke-width:0.26458332px;stroke-linecap:butt;stroke-linejoin:miter;stroke-opacity:1"
       d="m 0,293.82496 h 52.916667 v 2.91042 c -0.826823,0.0236 -0.942464,-0.28157 -1.322917,-0.26459 -0.380453,0.017 -0.50142,0.17115 -0.897693,0.26459 -0.396273,0.0934 -1.050833,0.2794 -1.483557,0.26458 -0.432724,-0.0148 -0.66157,-0.17536 -1.058333,-0.26458 -0.396763,-0.0892 -0.923628,-0.22505 -1.322917,-0.26459 -0.399289,-0.0395 -0.758324,-0.0532 -1.058333,0 -0.300009,0.0532 -0.371277,0.16757 -0.72288,0.26459 -0.351603,0.097 -0.879604,0.29912 -1.393787,0.26458 -0.514183,-0.0345 -0.913061,-0.45772 -1.5875,-0.52917 -0.674439,-0.0715 -1.809279,0.1618 -2.38125,0.26459 -0.571971,0.10279 -0.600921,0.24524 -1.058333,0.26458 -0.457412,0.0193 -1.257592,-0.23427 -1.634747,-0.26459 -0.377155,-0.0303 -0.405112,0.0417 -0.614212,0 -0.2091,-0.0417 -0.34724,-0.26566 -0.614211,-0.25513 -0.266971,0.0105 -0.785835,-0.0596 -1.10558,-0.009 -0.319745,0.0505 -0.398091,0.16631 -0.79375,0.26458 -0.395659,0.0983 -0.793749,0.26458 -1.5875,0.26458 -0.793751,0 -2.263133,-0.18189 -2.381251,-0.26457 -0.118117,-0.0827 -1.546609,-0.0397 -2.116666,0 -0.570057,0.0397 -0.474832,-0.6402 -1.5875,-0.26459 -0.529166,0 -1.833185,0.39215 -2.674182,0.30475 -0.832202,-0.0865 -1.029985,-0.30475 -2.088318,-0.56933 -1.058334,-0.26458 -1.058334,-0.79375 -1.852084,-0.52917 -0.79375,0.26459 -0.79375,0.26459 -1.322916,0.26459 -0.529167,0 -1.058334,-0.26459 -1.5875,0 -0.529167,0.26458 -2.116667,0.79375 -2.116667,0.79375 h -0.79375 c -1.322916,0 -0.782418,-0.49517 -2.38125,0 -0.79375,0.26458 -1.150501,-0.64073 -1.6796673,-0.64073 0,0 -0.857881,0.14497 -1.7599157,0.11156 -0.5874132,-0.0218 -0.7937501,-0.52917 -1.5875001,-0.26458 -0.79375,0.26458 -0.5409784,0.5398 -1.3229166,0.79375 0,0 -0.8780856,0.1754 -1.3229167,0.1754 -0.4448311,0 -1.3229166,-0.1754 -1.3229166,-0.1754 C 1.5943857,296.63106 2.0174479,296.3952 1.2236979,296.65978 0.52916667,296.99995 0,296.99996 0,296.99996 Z"
       inkscape:connector-curvature="0"
       sodipodi:nodetypes="ccczzzzzzzzzzzzzzzzzzzcsscsccscsscszsccc"/>
    <path
        style="opacity:0.6;fill:#ffffff;fill-opacity:1;fill-rule:evenodd;stroke:none;stroke-width:0.26458332px;stroke-linecap:butt;stroke-linejoin:miter;stroke-opacity:1"
        d="m 0,293.82496 h 52.916667 v 1.85208 c 0,0 -0.711673,0.20042 -0.952314,0.17718 -0.240641,-0.0232 -0.254269,-0.10305 -0.448151,-0.17718 -0.193882,-0.0741 -0.40915,-0.33188 -0.716202,-0.26458 -0.307052,0.0673 -0.609085,0.32128 -0.699256,0.32128 -0.264583,0 -0.359077,-0.0567 -0.623661,-0.32128 -0.264584,-0.26458 -0.694729,-0.0858 -1.058333,0 -0.363604,0.0858 -0.661006,0.2157 -1.058333,0.26458 -0.397327,0.0489 -0.834199,0.13734 -1.189606,0 -0.355407,-0.13734 -0.397894,-0.52916 -0.927061,-0.52916 -0.79375,0.26458 -0.79375,0.26458 -1.322917,0.26458 -0.322915,-0.0251 -0.888612,0.54723 -1.322916,0.52917 -0.434304,-0.0181 -0.663916,-0.52917 -1.058334,-0.52917 -0.394418,0 -0.651812,0.4332 -1.058333,0.52917 -0.406521,0.096 -0.879746,-0.0439 -1.322917,0 -0.443171,0.0439 -0.88861,0.36309 -1.322916,0.26458 -0.434306,-0.0985 -0.703048,-0.73609 -1.058334,-0.79375 -0.355286,-0.0577 -0.472722,0.25225 -0.79375,0.26458 -0.321028,0.0123 -0.694698,-0.26458 -1.058333,-0.26458 -0.363635,0 -0.639572,0.15471 -1.058334,0.26458 -0.418762,0.10987 -0.853119,0.35854 -1.452845,0.39924 -0.599726,0.0407 -1.457571,-0.13465 -1.986738,-0.39924 -0.529167,-0.26458 -0.904592,-0.50077 -1.322917,-0.52916 -0.418325,-0.0284 -0.52931,0.27694 -1.058333,0.26458 l -1.072352,-0.0251 c -0.264511,-0.006 -0.601356,-0.10022 -1.044315,-0.23952 -0.79815,-0.251 -1.058333,-0.26459 -1.5875,-0.26459 -0.529166,0 -0.79375,0.26459 -1.322916,0.26459 -0.529167,0 -0.529167,-0.26459 -1.322917,-0.26459 h -1.5875 c 0,0 -1.030299,-0.16116 -1.601674,-0.14174 -0.571375,0.0194 -1.800112,0.28348 -1.800112,0.28348 -0.522725,0.0823 -1.039435,-0.0472 -1.27567,0.0992 -0.224864,0.13942 -0.08504,0.2882 -0.878794,0.2882 -0.79375,0 0,0.52917 -1.852083,0.26458 -1.852083,-0.26458 -1.852083,-0.52916 -2.38125,-0.52916 H 7.6729166 c -1.3229167,0 -2.3812498,0.26472 -2.9104166,7e-5 -0.7937499,-0.26452 -1.5875,-0.26458 -1.8520833,0 -0.2645834,0.26459 -1.5875001,0.26458 -1.8520834,0.26458 C 0.79374999,295.41246 0,295.67704 0,295.67704 Z"
        inkscape:connector-curvature="0"
        sodipodi:nodetypes="ccczzzszzzzcczzzzzzzzzzczsscsssczssscssccscc"/>
    <path
        style="fill:#ffffff;fill-opacity:1;fill-rule:evenodd;stroke:none;stroke-width:0.26458332px;stroke-linecap:butt;stroke-linejoin:miter;stroke-opacity:1"
        d="m 0,293.82496 h 52.916667 v 0.79375 c -0.529167,0 -0.362123,0.11693 -0.89129,0.11693 -0.529166,0 -0.513186,-0.24599 -0.960794,-0.38151 -0.447608,-0.13552 -1.754379,0 -1.852083,0 -0.0977,0 -1.092849,0.26458 -1.371254,0.26458 -0.278406,0 -0.599307,-0.29014 -1.009996,-0.26458 -0.410689,0.0256 -0.875464,0.22632 -1.322917,0.26458 -0.447453,0.0383 -0.766955,-0.0729 -1.241817,0 -0.474862,0.0729 -0.818284,-0.33409 -1.404016,-0.26458 -0.585732,0.0695 -1.315798,0.33969 -1.852083,0.26458 -0.536285,-0.0751 -0.897785,0.30458 -1.322917,0.26458 -0.425132,-0.04 -0.824747,-0.3147 -1.217392,-0.23117 -0.392645,0.0835 -0.918862,-0.0845 -1.428441,-0.0334 -0.509579,0.051 -1.034225,0.3324 -1.5875,0.26458 -0.553275,-0.0678 -1.0904,-0.26458 -1.587501,-0.26458 -0.4971,0 -0.739749,0.2187 -1.189281,0.23117 -0.290481,0.008 -0.578757,-0.14906 -0.946541,-0.21213 -0.421501,-0.0723 -0.643413,0.0238 -1.039178,-0.019 -0.395765,-0.0428 -1.058333,-0.26458 -1.322916,-0.26458 -0.264583,0 -2.071191,0.12993 -2.38125,0.12993 -0.310059,0 -0.91445,-0.0385 -1.311878,-0.0548 -0.397428,-0.0162 -0.757344,-0.0132 -1.069372,-0.0752 -0.312028,-0.0619 -0.481991,-0.214 -0.79375,-0.26459 -0.311759,-0.0506 -0.702811,-0.0438 -1.058334,0 -0.355523,0.0438 -0.615277,0.21005 -1.058333,0.26459 -0.443056,0.0545 -1.188686,0.0647 -1.5875,0 -0.398814,-0.0647 -0.67327,-0.1701 -0.935491,-0.20553 -0.262221,-0.0354 -1.445759,-0.0591 -1.445759,-0.0591 0,0 -0.726434,0.0271 -1.081957,0.0709 -0.355522,0.0438 -0.684378,0.16121 -1.03471,0.19372 -0.350332,0.0325 -0.790696,-0.0632 -1.058333,0 -0.267637,0.0632 -0.304448,0.21153 -0.529167,0.26458 -0.224719,0.0531 -0.793749,0 -0.793749,0 -0.264584,0 -0.670765,-0.33596 -1.852084,-0.26458 -1.181319,0.0714 -1.080622,0.20037 -1.6209085,0.30068 -0.2601453,0.0483 -1.8186746,-0.0361 -2.0832579,-0.30068 -0.2645834,-0.26459 -0.6946978,-0.26459 -1.0583334,-0.26459 -0.3636356,0 -0.6590438,0.21543 -1.0583333,0.26459 -0.3992895,0.0492 -0.8358627,0.0403 -1.3229166,0 -0.4870539,-0.0403 -1.181068,-0.29648 -1.5875,-0.26459 -0.406432,0.0319 -0.4416539,0.17108 -0.79375,0.26459 -0.3520961,0.0935 -1.01139317,0.23373 -1.32291664,0.26458 -0.31152347,0.0308 -0.52916666,0 -0.52916666,0 z"
       inkscape:connector-curvature="0"
       sodipodi:nodetypes="ccczzzzzzzzzzzzzzsszzzzzzzzzzczzzzszsczzzzzzcc"/>
  </g>
</svg>
