<?xml version="1.0" encoding="utf-8" standalone="no"?>
<svg version="1.1" viewBox="0 0 50 50" xmlns="http://www.w3.org/2000/svg">
  <rect style="fill:none;opacity:0" width="50" height="50"/>
  <path style="opacity:0.6;fill:#fff9c4" d="M 5.26 48.34 C 3.9 47.77 2.12 46.38 1.65 45.51 0.72 43.8 0.12 39.23 0.09 33.68 0.06 26.88 -0.36 22.6 0.92 18.89 1.32 17.72 1.72 17.05 3.95 16.48 6.18 15.92 7.91 16.1 7.91 16.1 l 0.94 -3.29 c 0.59 -2.08 0.87 -3.59 2.31 -5.94 2.65 -4.33 4.45 -6.07 9.88 -6.63 5.31 -0.54 9.21 -0.1 11.16 0.51 3.12 0.98 6.05 1.95 7.88 6.67 0.41 1.05 0.67 2.84 0.91 5.59 0.03 0.4 0.41 2.88 0.66 3 1.13 0.51 3.4 0.32 5.55 2.66 1.22 1.33 1.94 3.19 2.46 7.52 0.44 3.66 0.45 13.68 0.02 16.26 -0.77 4.58 -2.52 6.69 -5.9 7.12 C 40.84 49.96 25 50.12 15 49.89 11.51 49.78 8.26 49.36 5.26 48.34 Z m 34.8 -2.36 c 1.58 -0.1 3.06 -0.23 3.28 -0.3 0.93 -0.29 1.81 -3.46 2.12 -7.6 0.36 -4.89 -0.14 -14.12 -1.25 -16.06 -0.84 -1.47 -2.11 -1.85 -3.22 -2.12 -0.71 -0.17 -1.67 -0.25 -3.16 -0.24 -2.28 0.01 -20.07 0.03 -27.19 0.25 -1.7 0.05 -3.91 -0.17 -4.62 0.8 -0.71 0.96 -1.03 2.94 -1.17 5.02 -0.12 1.85 -0.38 3.29 -0.32 5.92 0.11 4.71 0.08 6.2 0.41 8.57 0.45 3.3 0.69 3.93 1.78 4.57 1.03 0.61 3.37 1.2 5.41 1.35 9.74 -0.21 19.61 0.22 27.93 -0.16 z M 22.51 42.09 c -1.76 -0.31 -2.97 -0.97 -3.65 -2.01 -0.95 -1.46 -0.15 -3.84 0.4 -5.1 l 0.77 -1.78 c -0.7 -0.56 -1.28 -1.23 -1.81 -1.96 -0.82 -1.28 -0.65 -3.3 -0.06 -4.24 0.71 -1.13 2.23 -2.28 3.88 -2.91 1.18 -0.46 4.22 -1.28 7.43 0.64 1.77 1.05 2.69 2.69 2.7 4.82 0.01 1.64 -0.38 2.42 -1.7 3.37 l -1.03 0.74 0.7 1.7 c 0.81 1.97 0.92 3.35 0.37 4.44 -0.43 0.85 -1.76 1.78 -2.95 2.07 -1.66 0.14 -3.4 0.48 -5.05 0.23 z m 3.83 -3.46 c 0.56 -0.24 0.45 -0.95 -0.48 -3.3 -0.46 -1.16 -0.83 -2.32 -0.83 -2.58 0 -0.63 0.76 -1.49 1.9 -2.16 0.84 -0.4 0.94 -0.69 0.85 -1.47 -0.08 -1.02 -0.44 -1.55 -1.34 -1.98 -1.29 -0.62 -2.8 -0.51 -4.12 0.3 -0.71 0.44 -1.39 1.38 -1.37 1.91 0.02 0.71 0.55 1.55 1.31 2.06 1.45 0.98 1.61 2.04 0.72 4.89 -0.65 2.1 -0.63 1.94 -0.27 2.24 1.19 0.28 2.47 0.23 3.62 0.08 z m 10.56 -22.58 c 0 0 -0.14 -2.62 -0.4 -4.58 C 36.25 9.51 36.59 7.54 34.61 6.23 32.79 5.04 29.14 3.67 23.71 4.04 c -6.5 0.45 -7.07 3.04 -7.83 4.1 -1.22 1.69 -1.21 2.66 -1.74 5.38 l -0.3 2.46 8.25 0.03 c 12.31 0.06 8.58 -0.11 14.82 0.04 z"/>
</svg>
