<?xml version="1.0" encoding="utf-8" standalone="no"?>
<svg version="1.1" viewBox="0 0 50 50" xmlns="http://www.w3.org/2000/svg">
  <rect style="fill:#ffffff;opacity:0" width="50" height="50"/>
  <path style="fill:#f57c00" d="M 5.264,48.343 C 3.8965,47.766 2.123,46.375 1.65,45.5095 0.718,43.804 0.115,39.234 0.089,33.679 0.057,26.882 -0.357,22.604 0.922,18.887 1.325,17.717 1.718,17.045 3.949,16.482 6.18,15.919 7.91,16.1 7.91,16.1 l 0.936,-3.286 c 0.592,-2.08 0.874,-3.593 2.308,-5.942 2.645,-4.335 4.45,-6.073 9.884,-6.6275 5.306,-0.541 9.211,-0.096 11.157,0.514 3.119,0.978 6.046,1.945 7.877,6.671 0.406,1.049 0.669,2.837 0.914,5.593 0.032,0.4 0.413,2.885 0.664,3 1.129,0.509 3.405,0.32 5.549,2.66 1.222,1.334 1.94,3.193 2.463,7.522 0.443,3.663 0.453,13.675 0.017,16.263 -0.772,4.576 -2.524,6.691 -5.9,7.119 C 40.84,49.958 25,50.118 15,49.8925 11.513,49.782 8.259,49.36 5.264,48.343 Z m 34.8,-2.3615 c 1.58,-0.096 3.055,-0.23 3.277,-0.3 0.93,-0.286 1.814,-3.457 2.121,-7.604 0.3615,-4.892 -0.141,-14.123 -1.247,-16.0555 -0.838,-1.465 -2.108,-1.848 -3.216,-2.119 -0.713,-0.174 -1.673,-0.247 -3.159,-0.241 -2.281,0.01 -20.069,0.028 -27.192,0.248 -1.696,0.053 -3.913,-0.166 -4.621,0.795 -0.708,0.961 -1.033,2.939 -1.165,5.02 -0.1175,1.853 -0.383,3.285 -0.324,5.924 0.106,4.712 0.084,6.203 0.405,8.567 0.4475,3.296 0.694,3.929 1.777,4.574 1.029,0.612 3.368,1.196 5.411,1.352 9.738,-0.206 19.613,0.224 27.933,-0.1605 z M 22.509,42.093 c -1.76,-0.306 -2.973,-0.975 -3.652,-2.014 -0.333,-0.511 -0.402,-0.856 -0.389,-1.971 0.014,-1.183 0.112,-1.572 0.79,-3.129 l 0.7745,-1.778 -0.65,-0.582 C 19.027,32.3 18.505,31.681 18.225,31.245 17.783,30.556 17.715,30.273 17.708,29.1 c 0,-1.151 0.061,-1.462 0.456,-2.095 0.7055,-1.131 2.233,-2.279 3.877,-2.914 1.294,-0.5 1.547,-0.545 3,-0.536 1.826,0.012 3,0.321 4.435,1.179 1.769,1.051 2.686,2.686 2.7,4.8162 0.011,1.644 -0.378,2.416 -1.697,3.367 l -1.0295,0.742 0.698,1.7 c 0.808,1.968 0.9245,3.352 0.373,4.4415 -0.428,0.846 -1.76,1.779 -2.954,2.0675 -1.66,0.1405 -3.403,0.4768 -5.048,0.2255 z m 3.835,-3.464 c 0.555,-0.24 0.452,-0.9545 -0.476,-3.298 -0.459,-1.16 -0.835,-2.323 -0.835,-2.585 0,-0.632 0.759,-1.493 1.903,-2.157 0,0 0.631,-0.295 0.789,-0.581 0.142,-0.259 0.061,-0.885 0.061,-0.885 -0.08,-1.019 -0.436,-1.546 -1.339,-1.9815 -1.288,-0.6215 -2.796,-0.51 -4.115,0.304 -0.71,0.438 -1.387,1.3795 -1.374,1.912 0.017,0.714 0.546,1.546 1.308,2.058 1.454,0.977 1.611,2.035 0.725,4.892 -0.653,2.105 -0.6335,1.943 -0.265,2.241 1.187,0.275 2.468,0.235 3.618,0.08 z m 10.5645,-22.58 c 0,0 -0.143,-2.619 -0.402,-4.579 C 36.248,9.5085 36.585,7.537 34.606,6.234 32.787,5.037 29.141,3.667 23.707,4.043 c -6.504,0.45 -7.07,3.041 -7.833,4.097 -1.222,1.69 -1.213,2.66 -1.7435,5.375 l -0.296,2.462 8.251,0.027 c 4.632,0.024 8.59,0.026 8.794,0 2.108,-0.0728 4.24,0 6.029,0.045 z"/>
</svg>
