<?xml version="1.0" encoding="utf-8" standalone="no"?>
<svg version="1.1" viewBox="0 0 29 29" xmlns="http://www.w3.org/2000/svg">
  <rect style="fill:none;opacity:0" width="29" height="29"/>
  <g style="fill:#ffffff">
    <path d="m 26.52 27.44 c 0 0.74 -0.54 1.56 -1.27 1.56 H 3.92 c -0.73 0 -1.44 -0.83 -1.44 -1.56 V 12.71 c 0 -0.74 0.71 -1.4 1.44 -1.4 H 25.25 c 0.73 0 1.27 0.67 1.27 1.4 z"/>
    <path style="opacity:0.6" d="M 14.5 0 C 9.35 0 5.2 4.01 5.2 9.37 V 11.31 H 9.29 V 9.37 c 0 -4.01 2.28 -5.35 5.21 -5.35 2.94 0 5.22 1.34 5.22 5.35 v 1.94 h 4.08 V 9.37 C 23.8 4.01 19.65 0 14.5 0 z"/>
  </g>
</svg>
