<?xml version="1.0" encoding="UTF-8" standalone="no"?>
<!-- Created with Inkscape (http://www.inkscape.org/) -->

<svg
   xmlns:dc="http://purl.org/dc/elements/1.1/"
   xmlns:cc="http://creativecommons.org/ns#"
   xmlns:rdf="http://www.w3.org/1999/02/22-rdf-syntax-ns#"
   xmlns:svg="http://www.w3.org/2000/svg"
   xmlns="http://www.w3.org/2000/svg"
   xmlns:sodipodi="http://sodipodi.sourceforge.net/DTD/sodipodi-0.dtd"
   xmlns:inkscape="http://www.inkscape.org/namespaces/inkscape"
   width="50"
   height="50"
   version="1.1"
   inkscape:version="0.92.3 (unknown)"
   sodipodi:docname="lock-dark.svg">
  <metadata>
    <rdf:RDF>
      <cc:Work
         rdf:about="">
        <dc:format>image/svg+xml</dc:format>
        <dc:type rdf:resource="http://purl.org/dc/dcmitype/StillImage"/>
        <dc:title/>
      </cc:Work>
    </rdf:RDF>
  </metadata>
  <g
      transform="translate(-19.150198,-982.94812)">
    <path
        style="opacity:1;fill:#f57c00;fill-opacity:1;stroke:none"
        d="m 34.158964,1032.8367 c -5.071996,-0.1332 -7.198898,-0.4706 -9.744875,-1.5452 -1.367552,-0.5774 -3.141101,-1.9679 -3.614456,-2.8338 -0.93201,-1.7051 -1.53502,-6.2758 -1.560762,-11.8301 -0.03149,-6.7973 -0.445693,-11.0758 0.833476,-14.792 0.40272,-1.17 0.79582,-1.84202 3.027007,-2.40528 2.231188,-0.56336 3.960881,-0.3826 3.960881,-0.3826 l 0.935854,-3.2868 c 0.592083,-2.07946 0.874005,-3.59251 2.307804,-5.94218 2.645185,-4.33482 4.450539,-6.07302 9.884548,-6.62712 5.30613,-0.54105 9.210999,-0.0964 11.156653,0.51384 3.119231,0.97827 6.045839,1.94506 7.876798,6.67055 0.406385,1.04883 0.66926,2.83717 0.914207,5.59263 0.03247,0.40028 0.413056,2.88473 0.663896,2.99789 1.128622,0.50863 3.404623,0.31958 5.548829,2.66007 1.222394,1.3344 1.939605,3.1934 2.463092,7.5216 0.443001,3.6628 0.4533,13.6747 0.01673,16.2627 -0.771947,4.5762 -2.524386,6.6909 -5.899088,7.1187 -2.938636,0.3725 -19.546886,0.5499 -28.770595,0.3071 z m 25.054929,-3.9067 c 1.580553,-0.096 3.055268,-0.2305 3.277144,-0.2989 0.930091,-0.2861 1.814489,-3.4566 2.120945,-7.6037 0.361502,-4.892 -0.140745,-14.1227 -1.246592,-16.0555 -0.838407,-1.4653 -2.108056,-1.8484 -3.216444,-2.1191 -0.713468,-0.1741 -1.672636,-0.2472 -3.159125,-0.2409 -2.280747,0.01 -20.069419,0.028 -27.191976,0.2483 -1.696395,0.053 -3.913364,-0.166 -4.621247,0.7953 -0.707883,0.9612 -1.032951,2.9391 -1.164923,5.0201 -0.117524,1.8531 -0.383097,3.2851 -0.323685,5.9243 0.106085,4.7123 0.08393,6.2031 0.404917,8.567 0.447572,3.2963 0.693599,3.9292 1.777612,4.574 1.029418,0.6124 3.368162,1.1964 5.411387,1.3516 2.34098,0.1777 24.449233,0.048 27.931988,-0.1631 z m -17.554768,-3.8889 c -1.759804,-0.3058 -2.973204,-0.975 -3.651629,-2.0138 -0.333582,-0.5109 -0.401624,-0.8558 -0.38867,-1.9706 0.01376,-1.1831 0.112068,-1.5724 0.790208,-3.129 l 0.774508,-1.7776 -0.649617,-0.5818 c -0.357291,-0.3198 -0.878722,-0.9388 -1.158737,-1.3752 -0.441969,-0.6889 -0.510151,-0.9718 -0.516951,-2.1449 -0.0066,-1.1507 0.06108,-1.4619 0.456211,-2.0952 0.705576,-1.1312 2.233262,-2.2793 3.876657,-2.9137 1.293611,-0.4994 1.547155,-0.5447 2.991161,-0.5357 1.825961,0.012 2.989909,0.3206 4.435421,1.1789 1.769158,1.0507 2.685801,2.6857 2.699737,4.8162 0.01082,1.6441 -0.378339,2.4158 -1.697471,3.3668 l -1.029541,0.7423 0.697846,1.699 c 0.808358,1.9681 0.924524,3.352 0.372847,4.4415 -0.428472,0.8462 -1.760438,1.7786 -2.953719,2.0675 -1.151409,0.2788 -4.007072,0.4061 -5.048261,0.2253 z m 3.83466,-3.464 c 0.555281,-0.2404 0.452177,-0.9545 -0.476242,-3.2979 -0.459402,-1.1597 -0.835276,-2.3229 -0.835276,-2.5851 0,-0.6319 0.759444,-1.4927 1.90311,-2.1574 l 0.922534,-0.5361 -0.07322,-0.9304 c -0.08024,-1.0191 -0.43633,-1.5462 -1.338675,-1.9815 -1.288314,-0.6215 -2.795613,-0.5102 -4.115266,0.304 -0.710331,0.4382 -1.386523,1.3795 -1.373895,1.9123 0.01691,0.7137 0.545911,1.5462 1.308163,2.0583 1.45434,0.9772 1.611201,2.0349 0.725473,4.8918 -0.65272,2.1052 -0.633567,1.9434 -0.265165,2.2414 0.343074,0.2774 3.025541,0.3372 3.61847,0.081 z m 6.187548,-22.665 4.377457,0.0849 c 0,0 -0.142741,-2.61858 -0.401748,-4.57944 -0.259007,-1.96091 0.07792,-3.93277 -1.901035,-5.23565 -1.818359,-1.19715 -5.464411,-2.56634 -10.898958,-2.19035 -6.504345,0.45 -7.069887,3.04121 -7.833064,4.09658 -1.222427,1.69044 -1.21259,2.65961 -1.743543,5.37467 l -0.296059,2.46218 8.251003,0.027 c 4.632417,0.024 8.589631,0.026 8.793807,0 0.204178,-0.022 0.947641,-0.0399 1.65214,-0.041 z"
        inkscape:connector-curvature="0"
        sodipodi:nodetypes="ccssszcsssssccsssccccscscszsssccccccsccccccccccccccccccsccccsscsccccczsssccccccc"/>
  </g>
</svg>
