<?xml version="1.0" encoding="utf-8" standalone="no"?>
<svg version="1.1" viewBox="0 0 32 32" xmlns="http://www.w3.org/2000/svg">
  <g style="fill:#ffffff">
    <rect style="opacity:0" width="32" height="32"/>
    <path d="m 28.018,28.938 c 0,0.736 -0.537,1.562 -1.27,1.562 H 5.422 c -0.733,0 -1.44,-0.827 -1.44,-1.562 V 14.215 c 0,-0.736 0.706,-1.403 1.44,-1.403 H 26.748 c 0.733,0 1.27,0.666 1.27,1.403 z"/>
    <path style="opacity:0.6" d="m 16,1.5 c -5.152,0 -9.297,4.015 -9.297,9.369 v 1.944 h 4.081 v -1.944 c 0,-4.015 2.276,-5.3535 5.215,-5.3535 2.94,0 5.217,1.338 5.216,5.3535 v 1.944 h 4.081 v -1.944 c 0,-5.3535 -4.1445,-9.369 -9.297,-9.369 z"/>
  </g>
</svg>
