<?xml version="1.0" encoding="utf-8" standalone="no"?>
<svg version="1.1" viewBox="0 0 29 29" xmlns="http://www.w3.org/2000/svg">
  <g style="fill:#ffffff">
    <rect style="opacity:0" width="29" height="29"/>
    <path d="m 26.518,27.438 c 0,0.736 -0.537,1.562 -1.27,1.562 H 3.922 c -0.733,0 -1.44,-0.827 -1.44,-1.562 V 12.715 c 0,-0.736 0.706,-1.403 1.44,-1.403 H 25.248 c 0.733,0 1.27,0.666 1.27,1.403 z"/>
    <path style="opacity:0.6" d="M 14.5,0 C 9.348,0 5.203,4.015 5.203,9.369 V 11.313 H 9.285 V 9.369 c 0,-4.015 2.276,-5.3535 5.215,-5.3535 2.94,0 5.216,1.338 5.216,5.3535 v 1.944 h 4.081 V 9.369 C 23.797,4.015 19.653,0 14.5,0 z"/>
  </g>
</svg>
