<?xml version="1.0" encoding="utf-8" standalone="no"?>
<svg version="1.1" viewBox="0 0 32 32" xmlns="http://www.w3.org/2000/svg">
  <rect style="fill:none;opacity:0" width="32" height="32"/>
  <g style="fill:#ffffff">
    <path d="m 28.02 28.94 c 0 0.74 -0.54 1.56 -1.27 1.56 H 5.42 c -0.73 0 -1.44 -0.83 -1.44 -1.56 V 14.21 c 0 -0.74 0.71 -1.4 1.44 -1.4 H 26.75 c 0.73 0 1.27 0.67 1.27 1.4 z"/>
    <path style="opacity:0.6" d="m 16 1.5 c -5.15 0 -9.3 4.01 -9.3 9.37 v 1.94 h 4.08 v -1.94 c 0 -4.01 2.28 -5.35 5.21 -5.35 2.94 0 5.22 1.34 5.22 5.35 v 1.94 h 4.08 v -1.94 c 0 -5.35 -4.14 -9.37 -9.3 -9.37 z"/>
  </g>
</svg>
