<?xml version="1.0" encoding="utf-8" standalone="no"?>
<svg version="1.1" viewBox="0 0 64 64" xmlns="http://www.w3.org/2000/svg">
  <g style="fill:#ffffff">
    <rect style="opacity:0" width="64" height="64"/>
    <path style="opacity:0.6" d="M 50.53,55 H 13.47 C 11.556,55 10,53.444 10,51.53 V 14.47 C 10,12.556 11.556,11 13.47,11 H 50.53 C 52.443,11 54,12.556 54,14.47 V 51.53 C 54,53.443 52.444,55 50.53,55 Z M 13.47,13 C 12.659,13 12,13.659 12,14.47 V 51.53 C 12,52.34 12.659,53 13.47,53 H 50.53 C 51.34,53 52,52.341 52,51.53 V 14.47 C 52,13.659 51.341,13 50.53,13 z"/>
    <path d="m 43.05,48.646 c -0.372,0 -0.863,-0.132 -1.411,-0.614 L 24.685,33.104 c -0.369,-0.325 -0.405,-0.887 -0.08,-1.256 0.324,-0.369 0.887,-0.406 1.256,-0.08 l 16.976,14.949 10e-4,-27.114 c 0,-0.492 0.398,-0.89 0.89,-0.89 0.492,0 0.89,0.398 0.89,0.89 v 27.083 c 0,1.264 -0.674,1.704 -0.964,1.835 -0.124,0.055 -0.333,0.125 -0.604,0.125 z"/>
    <path d="m 20.272,47.432 c -0.492,0 -0.89,-0.398 -0.89,-0.89 V 19.458 c 0,-1.263 0.674,-1.704 0.964,-1.835 0.291,-0.131 1.067,-0.346 2.015,0.489 L 39.315,33.04 c 0.369,0.325 0.404,0.887 0.08,1.256 -0.326,0.369 -0.889,0.402 -1.256,0.08 L 21.163,19.428 v 27.113 c 0,0.492 -0.4,0.891 -0.891,0.891 z" />
  </g>
</svg>
