<?xml version="1.0" encoding="utf-8"?>
<svg
    version="1.1"
    xmlns="http://www.w3.org/2000/svg"
    xmlns:xlink="http://www.w3.org/1999/xlink"
    x="0px"
    y="0px"
    width="64"
    height="64"
    viewBox="0 0 64 64"
    style="enable-background:new 0 0 64 64">
  <g>
    <rect
        style="opacity:0;fill:#ffffff"
        width="64"
        height="64"/>
    <g>
      <g style="opacity:0.6;">
        <path
            style="fill:#ffffff"
            d="M50.529,55H13.471C11.557,55,10,53.443,10,51.529V14.471C10,12.557,11.557,11,13.471,11h37.059     C52.443,11,54,12.557,54,14.471v37.059C54,53.443,52.443,55,50.529,55z M13.471,13C12.66,13,12,13.66,12,14.471v37.059     C12,52.34,12.66,53,13.471,53h37.059C51.34,53,52,52.34,52,51.529V14.471C52,13.66,51.34,13,50.529,13H13.471z"/>
      </g>
      <path
          style="fill:#ffffff"
          d="M43.05,48.646c-0.372,0-0.863-0.132-1.411-0.614L24.685,33.104    c-0.369-0.325-0.405-0.887-0.08-1.256c0.324-0.369,0.887-0.406,1.256-0.08l16.954,14.929c0.008,0.007,0.016,0.014,0.022,0.02    c0.001-0.01,0.001-0.02,0.001-0.03V19.603c0-0.492,0.398-0.89,0.89-0.89s0.89,0.398,0.89,0.89v27.083    c0,1.264-0.674,1.704-0.964,1.835C43.53,48.576,43.321,48.646,43.05,48.646z"/>
      <path
          style="fill:#ffffff"
          d="M20.272,47.432c-0.492,0-0.89-0.398-0.89-0.89V19.458c0-1.263,0.674-1.704,0.964-1.835    c0.291-0.131,1.067-0.346,2.015,0.489L39.315,33.04c0.369,0.325,0.404,0.887,0.08,1.256c-0.326,0.369-0.889,0.402-1.256,0.08    L21.186,19.448c-0.008-0.007-0.016-0.014-0.023-0.02c0,0.01,0,0.02,0,0.03v27.083C21.162,47.033,20.764,47.432,20.272,47.432z"/>
    </g>
  </g>
</svg>
