<?xml version="1.0" encoding="utf-8" standalone="no"?>
<svg version="1.1" viewBox="0 0 64 64" xmlns="http://www.w3.org/2000/svg">
  <rect style="fill:none;opacity:0" width="64" height="64"/>
  <g style="fill:#ffffff">
    <path style="opacity:0.6" d="M 50.53 55 H 13.47 C 11.56 55 10 53.44 10 51.53 V 14.47 C 10 12.56 11.56 11 13.47 11 H 50.53 C 52.44 11 54 12.56 54 14.47 V 51.53 C 54 53.44 52.44 55 50.53 55 Z M 13.47 13 C 12.66 13 12 13.66 12 14.47 V 51.53 C 12 52.34 12.66 53 13.47 53 H 50.53 C 51.34 53 52 52.34 52 51.53 V 14.47 C 52 13.66 51.34 13 50.53 13 z"/>
    <path d="M 41.64 48.03 24.68 33.1 c -0.87 -0.77 0.3 -2.11 1.18 -1.34 l 16.98 14.95 0 -27.11 c 0 -1.16 1.78 -1.16 1.78 0 v 27.08 c 0 1.99 -1.67 2.5 -2.98 1.35 z"/>
    <path d="M 19.38 46.54 V 19.46 c 0 -1.87 1.57 -2.58 2.98 -1.35 L 39.31 33.04 c 0.87 0.77 -0.3 2.1 -1.18 1.34 L 21.16 19.43 v 27.11 c 0 1.16 -1.78 1.17 -1.78 0 z"/>
  </g>
</svg>
