<?xml version="1.0" encoding="UTF-8" standalone="no"?>
<svg
   xmlns:dc="http://purl.org/dc/elements/1.1/"
   xmlns:cc="http://creativecommons.org/ns#"
   xmlns:rdf="http://www.w3.org/1999/02/22-rdf-syntax-ns#"
   xmlns:svg="http://www.w3.org/2000/svg"
   xmlns="http://www.w3.org/2000/svg"
   xmlns:sodipodi="http://sodipodi.sourceforge.net/DTD/sodipodi-0.dtd"
   xmlns:inkscape="http://www.inkscape.org/namespaces/inkscape"
   version="1.1"
   id="Layer_1"
   x="0px"
   y="0px"
   width="64"
   height="64"
   viewBox="0 0 64 64"
   style="enable-background:new 0 0 64 64;"
   xml:space="preserve"
   sodipodi:docname="redo.svg"
   inkscape:version="0.92.4 (unknown)">
  <metadata>
    <rdf:RDF>
      <cc:Work
          rdf:about="">
        <dc:format>image/svg+xml</dc:format>
        <dc:type
            rdf:resource="http://purl.org/dc/dcmitype/StillImage" />
        <dc:title/>
      </cc:Work>
    </rdf:RDF>
  </metadata>
  <g>
    <g>
      <circle
          style="opacity:0.2;fill:#FFFFFF;"
          cx="32"
          cy="32"
          r="30"/>
      <path
          style="fill:none;stroke:#FFFFFF;stroke-width:2.5;stroke-linecap:round;stroke-miterlimit:10;"
          d="M19.626,44.375"/>
    </g>
    <g>
      <path
          style="opacity:0.6;fill:#FFFFFF;"
          d="M31.671,48.129c-8.632,0-15.655-7.022-15.655-15.654 c0-8.632,7.022-15.655,15.655-15.655c4.046,0,7.885,1.539,10.812,4.333c0.399,0.381,0.414,1.014,0.033,1.414 c-0.383,0.4-1.015,0.415-1.414,0.033c-2.553-2.437-5.902-3.779-9.431-3.779c-7.529,0-13.655,6.125-13.655,13.655 c0,7.529,6.125,13.654,13.655,13.654c3.19,0,6.297-1.127,8.746-3.175c0.426-0.354,1.056-0.296,1.409,0.126 c0.354,0.424,0.298,1.055-0.126,1.409C38.891,46.836,35.329,48.129,31.671,48.129z"/>
      <path
          style="fill:#FFFFFF;"
          d="M37.672,29.269c-1.321,0-1.79-0.654-1.953-1.044c-0.163-0.391-0.296-1.188,0.64-2.126l8.435-8.464 c0.937-0.94,1.733-0.808,2.123-0.646c0.392,0.162,1.05,0.63,1.052,1.955l0.013,7.236c0.001,0.818-0.317,1.59-0.897,2.172 c-0.581,0.583-1.352,0.904-2.17,0.906l-7.234,0.013C37.676,29.269,37.674,29.269,37.672,29.269z M45.969,19.287l-7.953,7.981 l6.894-0.012c0.285,0,0.554-0.113,0.757-0.317s0.315-0.473,0.314-0.757L45.969,19.287z M45.501,18.339h0.01H45.501z"/>
    </g>
    <g
        style="opacity:0;">
      <rect
          style="fill:#FFFFFF;"
          width="64"
          height="64"/>
    </g>
  </g>
</svg>
