<?xml version="1.0" encoding="utf-8" standalone="no"?>
<svg version="1.1" viewBox="0 0 990 256" xmlns="http://www.w3.org/2000/svg">
  <rect style="fill:none;opacity:0" width="990" height="256"/>
  <g style="fill:#ffffff">
    <path d="m 11,11 v 6 0 h 131 v -6 z"/>
    <path d="M 150,36.1 144.2,37.6 190.6,216 l 5.8,-1.5 z"/>
    <path d="m 198,240 v 6 H 198.3 328 v -6 z"/>
    <path d="M 376.2,33.2 C 362.3,51.7 352,70.3 345.3,89.1 c -12.4,35.5 -11.3,74.3 2.9,109.1 7.6,18.6 16.9,34.9 28,48.9 l 4.7,-3.7 c -10.7,-13.5 -19.7,-29.3 -27.1,-47.4 C 340,162.6 339.1,125.3 351,91.1 c 0,0 0,0 0,0 6.5,-18.1 16.4,-36.2 30,-54.4 z"/>
    <path d="m 417.4,43.6 c 8.4,17.2 18.3,43.7 21.3,58.9 l 5.9,-1.1 C 440.8,83.8 431.5,58.6 422.9,41.1 z"/>
    <path d="m 488.3,30.4 c 0,0 0,0 0,0 3,11.7 5.7,23.5 7.7,33.7 2,10.7 3.5,21.1 4.1,29.4 l 6,-0.4 c -1.1,-11.2 -2.7,-22.4 -4.5,-31.7 -2.5,-11.2 -4.8,-22.8 -7.5,-32.5 0,0 -5.8,1.6 -5.8,1.6 z"/>
    <path d="m 578.9,43 c -9.5,29.4 -21.2,58.8 -36.6,82 -3.8,5.3 -7.5,10.8 -11.3,15.6 -9.6,11.6 -20,23 -30.5,32.1 -3.3,2.7 -6.6,5.5 -9.7,7.8 -14.8,9.2 -29.6,19.2 -43,24.8 l 2,5.7 0.8,-0.3 c 2.5,-0.9 20.6,-7.5 43.9,-25.4 3.3,-2.5 6.6,-5.1 10,-8.1 9.4,-8.1 20,-18.8 30.5,-32.1 0,0 5.1,-6.8 7.2,-9.7 19.4,-27.9 35.2,-63.6 42.5,-90.8 z"/>
    <path d="m 615.8,32 c 13.9,18.5 24.2,37.2 30.9,56 c 12.4,35.5 11.3,74.3 -2.9,109.1 -7.6,18.6 -16.9,34.9 -28,48.9 l -4.7,-3.7 c 10.7,-13.5 19.7,-29.3 27.1,-47.4 c 13.7,-33.4 14.7,-70.7 2.8,-104.9 C 634.5,71.8 624.6,53.7 611,35.6 z"/>
    <path d="m 657,240 v 6 h 130 v -6 z"/>
    <path d="M 838.9,36.1 792.5,214.5 798.3,216 844.7,37.6 z"/>
    <path d="m 844,11 v 6 h 0 130 v -6 z"/>
  </g>
</svg>
