<?xml version="1.0" encoding="UTF-8" standalone="no"?>
<svg
   xmlns:dc="http://purl.org/dc/elements/1.1/"
   xmlns:cc="http://creativecommons.org/ns#"
   xmlns:rdf="http://www.w3.org/1999/02/22-rdf-syntax-ns#"
   xmlns:svg="http://www.w3.org/2000/svg"
   xmlns="http://www.w3.org/2000/svg"
   xmlns:sodipodi="http://sodipodi.sourceforge.net/DTD/sodipodi-0.dtd"
   xmlns:inkscape="http://www.inkscape.org/namespaces/inkscape"
   version="1.1"
   id="Layer_1"
   x="0px"
   y="0px"
   width="64"
   height="64"
   viewBox="0 0 64 64"
   style="enable-background:new 0 0 64 64;"
   xml:space="preserve"
   sodipodi:docname="undo.svg"
   inkscape:version="0.92.4 (unknown)">
  <metadata>
    <rdf:RDF>
      <cc:Work
          rdf:about="">
        <dc:format>image/svg+xml</dc:format>
        <dc:type
            rdf:resource="http://purl.org/dc/dcmitype/StillImage"/>
        <dc:title/>
      </cc:Work>
    </rdf:RDF>
  </metadata>
  <g
      transform="matrix(-1,0,0,1,64,0)">
    <g>
      <circle
          style="opacity:0.2;fill:#ffffff"
          cx="32"
          cy="32"
          r="30"/>
      <path
          style="fill:none;stroke:#ffffff;stroke-width:2.5;stroke-linecap:round;stroke-miterlimit:10"
          d="M 19.626,44.375"
          inkscape:connector-curvature="0" />
    </g>
    <g>
      <path
          style="opacity:0.6;fill:#ffffff"
          d="m 31.671,48.129 c -8.632,0 -15.655,-7.022 -15.655,-15.654 0,-8.632 7.022,-15.655 15.655,-15.655 4.046,0 7.885,1.539 10.812,4.333 0.399,0.381 0.414,1.014 0.033,1.414 -0.383,0.4 -1.015,0.415 -1.414,0.033 -2.553,-2.437 -5.902,-3.779 -9.431,-3.779 -7.529,0 -13.655,6.125 -13.655,13.655 0,7.529 6.125,13.654 13.655,13.654 3.19,0 6.297,-1.127 8.746,-3.175 0.426,-0.354 1.056,-0.296 1.409,0.126 0.354,0.424 0.298,1.055 -0.126,1.409 -2.809,2.346 -6.371,3.639 -10.029,3.639 z"
          inkscape:connector-curvature="0"/>
      <path
          style="fill:#ffffff"
          d="m 37.672,29.269 c -1.321,0 -1.79,-0.654 -1.953,-1.044 -0.163,-0.391 -0.296,-1.188 0.64,-2.126 l 8.435,-8.464 c 0.937,-0.94 1.733,-0.808 2.123,-0.646 0.392,0.162 1.05,0.63 1.052,1.955 l 0.013,7.236 c 10e-4,0.818 -0.317,1.59 -0.897,2.172 -0.581,0.583 -1.352,0.904 -2.17,0.906 l -7.234,0.013 c -0.005,-0.002 -0.007,-0.002 -0.009,-0.002 z m 8.297,-9.982 -7.953,7.981 6.894,-0.012 c 0.285,0 0.554,-0.113 0.757,-0.317 0.203,-0.204 0.315,-0.473 0.314,-0.757 z m -0.468,-0.948 h 0.01 z"
          inkscape:connector-curvature="0"/>
    </g>
    <g
        style="opacity:0">
      <rect
          style="fill:#ffffff"
          width="64"
          height="64"
          x="0"
          y="0" />
    </g>
  </g>
</svg>
