<?xml version="1.0" encoding="utf-8" standalone="no"?>
<svg version="1.1" viewBox="0 0 64 64" xmlns="http://www.w3.org/2000/svg">
  <rect style="fill:none;opacity:0" width="64" height="64"/>
  <g style="fill:#ffffff">
    <circle style="opacity:0.2" cx="32" cy="32" r="30"/>
    <path style="opacity:0.6" d="m 32.33 48.13 c 8.63 0 15.65 -7.02 15.65 -15.65 0 -8.63 -7.02 -15.65 -15.65 -15.65 -4.05 0 -7.88 1.54 -10.81 4.33 l 1.38 1.44 c 2.55 -2.44 5.9 -3.78 9.43 -3.78 7.53 0 13.65 6.12 13.65 13.65 0 7.53 -6.12 13.65 -13.65 13.65 -3.19 0 -6.3 -1.13 -8.75 -3.17 -1.03 -0.83 -2.28 0.7 -1.28 1.54 2.81 2.35 6.37 3.64 10.03 3.64 z"/>
    <path d="m 26.33 29.27 c 2.06 0 2.74 -1.74 1.31 -3.17 L 19.2 17.64 c -1.46 -1.46 -3.17 -0.73 -3.17 1.31 l -0.01 7.24 c 0 1.68 1.36 3.06 3.07 3.08 z m -8.3 -9.98 7.95 7.98 -6.89 -0.01 c -0.6 0 -1.09 -0.51 -1.07 -1.08 z"/>
  </g>
</svg>
