<?xml version="1.0" encoding="UTF-8" standalone="no"?>
<!DOCTYPE svg PUBLIC "-//W3C//DTD SVG 1.1//EN" "http://www.w3.org/Graphics/SVG/1.1/DTD/svg11.dtd">
<svg width="100%" height="100%" viewBox="0 0 86 86" version="1.1" xmlns="http://www.w3.org/2000/svg" xmlns:xlink="http://www.w3.org/1999/xlink" xml:space="preserve" xmlns:serif="http://www.serif.com/" style="fill-rule:evenodd;clip-rule:evenodd;stroke-linejoin:round;stroke-miterlimit:2;">
    <g transform="matrix(1,0,0,1,0,-966.362)">
        <g transform="matrix(1,0,0,1,0,966.362)">
            <rect x="0" y="0" width="86" height="86" style="fill:white;fill-opacity:0;"/>
            <g>
                <path d="M41.283,85.606C41.088,85.597 40.876,85.586 40.648,85.573C40.856,85.588 41.07,85.596 41.283,85.606Z" style="fill:rgb(255,200,160);fill-rule:nonzero;"/>
                <path d="M41.672,85.623C42.051,85.633 42.429,85.652 42.811,85.652C42.285,85.652 41.783,85.631 41.283,85.607C41.423,85.613 41.549,85.618 41.672,85.623Z" style="fill:rgb(255,200,160);fill-rule:nonzero;"/>
                <path d="M0.237,45.164C0.224,44.936 0.213,44.724 0.204,44.529C0.214,44.741 0.223,44.955 0.237,45.164Z" style="fill:rgb(255,200,160);fill-rule:nonzero;"/>
                <path d="M0.188,44.139C0.193,44.262 0.198,44.388 0.204,44.528C0.18,44.028 0.159,43.526 0.159,43C0.159,43.382 0.178,43.759 0.188,44.139Z" style="fill:rgb(255,200,160);fill-rule:nonzero;"/>
            </g>
            <path d="M85.462,1.77C85.462,0.985 84.826,0.348 84.04,0.348L1.581,0.348C0.796,0.348 0.159,0.985 0.159,1.77L0.159,43C0.159,66.556 19.255,85.651 42.81,85.651C65.044,85.651 85.462,66.582 85.462,43L85.462,1.77Z" style="fill:url(#_Linear1);fill-rule:nonzero;"/>
            <g>
                <path d="M84.041,0.349L1.581,0.349C0.796,0.349 0.159,0.986 0.159,1.771L0.159,14.704L85.462,14.704L85.462,1.77C85.462,0.985 84.826,0.349 84.041,0.349Z" style="fill:url(#_Linear2);fill-rule:nonzero;"/>
            </g>
            <g opacity="0.4">
                <g transform="matrix(0.783407,0,0,0.992526,9.29346,0.0145353)">
                    <rect x="10.834" y="62.913" width="64.147" height="1.872" style="fill:rgb(191,54,12);"/>
                </g>
                <g transform="matrix(0.531726,0,0,0.993847,20.0925,9.51044)">
                    <rect x="10.834" y="62.913" width="64.147" height="1.872" style="fill:rgb(191,54,12);"/>
                </g>
                <g transform="matrix(1,0,0,1,0,-0.538437)">
                    <rect x="10.834" y="53.554" width="64.147" height="1.872" style="fill:rgb(191,54,12);"/>
                </g>
                <g transform="matrix(1,0,0,1,0,-0.606056)">
                    <rect x="10.834" y="44.194" width="64.147" height="1.872" style="fill:rgb(191,54,12);"/>
                </g>
                <rect x="10.834" y="24.54" width="64.147" height="1.872" style="fill:rgb(191,54,12);"/>
                <g transform="matrix(1,0,0,1,0,-0.795442)">
                    <rect x="10.834" y="34.835" width="64.147" height="1.872" style="fill:rgb(191,54,12);"/>
                </g>
            </g>
        </g>
        <g transform="matrix(0.0976884,0,0,0.0976884,19.226,985.588)">
            <path d="M403.88,196.563L394.396,196.563L394.396,152.175C394.396,70.076 329.245,1.494 247.814,0.03C245.589,-0.01 241.143,-0.01 238.919,0.03C157.486,1.494 92.336,70.076 92.336,152.175L92.336,196.563L82.851,196.563C68.235,196.563 56.313,211.645 56.313,230.272L56.313,452.904C56.313,471.51 68.235,486.733 82.852,486.733L403.88,486.733C418.496,486.733 430.419,471.51 430.419,452.904L430.419,230.272C430.419,211.646 418.497,196.563 403.88,196.563ZM273.442,341.362L273.442,408.633C273.442,416.336 266.993,422.855 259.284,422.855L227.45,422.855C219.74,422.855 213.291,416.336 213.291,408.633L213.291,341.362C205.814,334.002 201.461,323.825 201.461,312.567C201.461,291.233 217.952,272.901 238.92,272.054C241.142,271.964 245.593,271.964 247.815,272.054C268.783,272.901 285.274,291.233 285.274,312.567C285.272,323.825 280.919,334.002 273.442,341.362ZM331.887,196.563L154.847,196.563L154.847,152.175C154.847,103.27 194.591,62.833 243.366,62.833C292.141,62.833 331.887,103.27 331.887,152.175L331.887,196.563Z" style="fill:rgb(250,198,121);fill-rule:nonzero;"/>
        </g>
    </g>
    <defs>
        <linearGradient id="_Linear1" x1="0" y1="0" x2="1" y2="0" gradientUnits="userSpaceOnUse" gradientTransform="matrix(72.3941,-72.3941,72.3941,72.3941,12.6445,73.1519)"><stop offset="0" style="stop-color:rgb(245,124,0);stop-opacity:1"/><stop offset="1" style="stop-color:rgb(230,81,0);stop-opacity:1"/></linearGradient>
        <linearGradient id="_Linear2" x1="0" y1="0" x2="1" y2="0" gradientUnits="userSpaceOnUse" gradientTransform="matrix(49.4124,-49.4124,49.4124,49.4124,18.1046,32.6486)"><stop offset="0" style="stop-color:rgb(148,42,9);stop-opacity:1"/><stop offset="0.99" style="stop-color:rgb(200,57,12);stop-opacity:1"/><stop offset="1" style="stop-color:rgb(200,57,12);stop-opacity:1"/></linearGradient>
    </defs>
</svg>
