<?xml version="1.0" encoding="utf-8" standalone="no"?>
<svg version="1.1" viewBox="0 0 86 86" xmlns="http://www.w3.org/2000/svg">
  <defs>
    <linearGradient id="gradient1" x1="12.8" y1="73.2" x2="85.7" y2="0.3" gradientUnits="userSpaceOnUse">
      <stop offset="0" style="stop-color:#f57c00;stop-opacity:1"/>
      <stop offset="1" style="stop-color:#e65100;stop-opacity:1"/>
    </linearGradient>
    <linearGradient id="gradient2" x1="85.7" y1="0.3" x2="29.6" y2="56.4" gradientUnits="userSpaceOnUse">
      <stop offset="0" style="stop-color:#942a09;stop-opacity:1"/>
      <stop offset="1" style="stop-color:#c8390c;stop-opacity:1"/>
    </linearGradient>
  </defs>
  <rect style="fill:none;opacity:0" width="86" height="86"/>
  <path style="fill:url(#gradient1)" d="M 85.7,1.8 C 85.7,1 85,0.3 84.2,0.3 H 1.8 C 1,0.3 0.3,1 0.3,1.8 v 41.2 c 0,23.6 19.1,42.7 42.7,42.7 22.2,0 42.7,-19.1 42.7,-42.7 z"/>
  <path style="fill:url(#gradient2)" d="M 1.8,0.3 C 1,0.3 0.3,1 0.3,1.8 l 0,12.9 H 85.7 V 1.8 C 85.7,1 85.1,0.3 84.3,0.3 z"/>
  <g style="opacity:0.4;fill:#bf360c">
    <rect x="11" y="25" width="64" height="2"/>
    <rect x="11" y="34.8" width="64" height="2"/>
    <rect x="11" y="44.6" width="64" height="2"/>
    <rect x="11" y="54.4" width="64" height="2"/>
    <rect x="11" y="64.2" width="64" height="2"/>
    <path d="M 12.8 73.2 C 13.5 73.9 14.2 74.6 14.9 75.2 L 70.5 75.2 C 71.2 74.6 72 73.9 72.7 73.2 L 12.8 73.2 z"/>
  </g>
  <path style="opacity:0.6;fill:#fff9c4" d="M 36,66.11 C 31.94,66 30.24,65.73 28.2,64.88 27.11,64.41 25.69,63.3 25.31,62.61 c -0.74,-1.37 -1.23,-5.02 -1.25,-9.47 -0.02,-5.43 -0.35,-8.86 0.67,-11.83 0.32,-0.94 0.64,-1.47 2.42,-1.92 1.78,-0.45 3.17,-0.31 3.17,-0.31 0.7,-2.53 1.31,-5.07 2.6,-7.38 2.12,-3.47 3.56,-4.86 7.91,-5.3 4.25,-0.43 7.37,-0.08 8.93,0.41 2.5,0.78 4.84,1.56 6.3,5.34 0.33,0.84 0.54,2.27 0.73,4.47 0.03,0.32 0.33,2.31 0.53,2.4 0.9,0.41 2.72,0.26 4.44,2.13 0.98,1.07 1.55,2.56 1.97,6.02 0.35,2.93 0.36,10.94 0.01,13.01 -0.62,3.66 -2.02,5.35 -4.72,5.7 -7.69,0.26 -15.4,0.41 -23.02,0.23 z m 22.67,-3.37 c 1.25,-0.21 1.45,-2.77 1.7,-6.08 0.29,-3.91 -0.46,-12.26 -1.21,-13.38 -0.39,-0.49 -1.19,-1.38 -4.89,-1.35 -0.01,-0.03 -21.75,0.2 -21.75,0.2 -1.36,0.04 -3.13,-0.13 -3.7,0.64 -1.16,2.67 -1.19,5.87 -1.19,8.76 0.09,3.77 0.07,4.96 0.32,6.85 0.14,3.76 2.41,4.37 5.75,4.74 8.74,-0.62 17.63,0.4 24.97,-0.37 z M 42,59.87 c -1.41,-0.24 -2.38,-0.78 -2.92,-1.61 -0.85,-1.87 0.18,-3.77 0.94,-5.5 -1.13,-0.9 -1.79,-1.86 -1.86,-3.29 -0.09,-2.1 1.73,-3.23 3.46,-4.01 1.05,-0.41 3.38,-0.99 5.94,0.51 1.42,0.84 2.15,2.15 2.16,3.85 0.12,1.64 -1.01,2.44 -2.18,3.28 0.72,1.6 1.38,3.16 0.86,4.91 -0.34,0.68 -1.41,1.42 -2.36,1.65 -0.92,0.22 -3.21,0.33 -4.04,0.18 z m 3.07,-2.77 c 0.93,-0.4 -1.05,-3.77 -1.05,-4.71 0,-0.51 0.61,-1.19 1.52,-1.73 0.73,-0.34 0.74,-0.43 0.68,-1.17 -0.06,-0.81 -0.35,-1.24 -1.07,-1.58 -2.2,-1.07 -4.41,0.76 -4.39,1.77 0.01,0.57 0.44,1.24 1.05,1.65 1.16,0.78 1.29,1.63 0.58,3.91 -0.52,1.68 -0.51,1.55 -0.21,1.79 0.95,0.22 1.98,0.19 2.9,0.06 z m 8.45,-18.06 c 0,0 -0.11,-2.1 -0.32,-3.66 -0.21,-1.57 0.06,-3.15 -1.52,-4.19 -1.46,-0.96 -4.37,-2.06 -8.72,-1.76 -5.2,0.36 -5.66,2.44 -6.27,3.28 -0.9,1.23 -1.13,2.19 -1.63,6.27 z"/>
</svg>
