<?xml version="1.0" encoding="UTF-8" standalone="no"?>
<svg version="1.1" viewBox="0 0 86 86" xmlns="http://www.w3.org/2000/svg">
  <defs>
    <linearGradient id="SVGID_1_" gradientUnits="userSpaceOnUse" x1="12.64" y1="73.15" x2="85.04" y2="0.78">
      <stop offset="0" style="stop-color:#f57c00;stop-opacity:1"/>
      <stop offset="1" style="stop-color:#e65100;stop-opacity:1"/>
    </linearGradient>
    <linearGradient id="SVGID_2_" gradientUnits="userSpaceOnUse" x1="18.1" y1="32.65" x2="67.52" y2="-16.76">
      <stop offset="0" style="stop-color:#942a09;stop-opacity:1"/>
      <stop offset="1" style="stop-color:#c8390c;stop-opacity:1"/>
    </linearGradient>
  </defs>
  <rect style="opacity:0;fill:#ffffff" width="86" height="86"/>
  <g>
    <path style="fill:url(#SVGID_1_)" d="M 85.653,1.772 C 85.653,0.987 85.017,0.35 84.231,0.35 H 1.772 C 0.987,0.35 0.35,0.987 0.35,1.772 v 41.23002 c 0,23.556 19.096,42.651 42.651,42.651 22.234233,0 42.652,-19.069 42.652,-42.651 z"/>
    <path style="fill:url(#SVGID_2_)" d="M 84.232,0.351 H 1.772 c -0.785,0 -1.422,0.637 -1.422,1.422 V 14.706 H 85.653 V 1.772 c 0,-0.785 -0.636,-1.42 -1.421,-1.42 z"/>
  </g>
  <g style="opacity:0.4;fill:#bf360c">
    <rect x="11" y="25" width="64" height="1.872"/>
    <rect x="11" y="34.8" width="64" height="1.872"/>
    <rect x="11" y="44.6" width="64" height="1.872"/>
    <rect x="11" y="54.4" width="64" height="1.872"/>
    <rect x="11" y="64.2" width="64" height="1.872"/>
    <path d="M 14.88,75.079 H 70.6 c 0.872,-0.764 1.353,-1.215 2.03,-1.872 H 12.9 c 0.594,0.629 1.392,1.357 1.98,1.872 z"/>
  </g>
  <path style="opacity:0.62;fill:#fff9c4" d="M 36,66.111 C 31.942,66 30.241,65.734 28.204,64.875 27.11,64.413 25.691,63.301 25.312,62.608 24.566,61.244 24.084,57.587 24.063,53.144 24.038,47.706 23.706,44.283 24.73,41.31 c 0.322,-0.936 0.637,-1.474 2.422,-1.924 1.785,-0.451 3.169,-0.306 3.169,-0.306 l 0.749,-2.629 c 0.474,-1.664 0.699,-2.874 1.846,-4.754 2.116,-3.468 3.56,-4.858 7.908,-5.302 4.245,-0.433 7.369,-0.077 8.925,0.411 2.495,0.783 4.837,1.556 6.301,5.336 0.325,0.839 0.535,2.27 0.731,4.474 0.026,0.32 0.33,2.308 0.531,2.398 0.903,0.407 2.724,0.256 4.439,2.128 0.978,1.068 1.552,2.555 1.97,6.017 0.354,2.93 0.363,10.94 0.0134,13.01 -0.618,3.661 -2.0195,5.353 -4.719,5.695 C 51.327512,66.141262 43.617931,66.292002 36,66.111 Z m 22.666,-3.365 c 1.247,-0.214 1.452,-2.765 1.697,-6.083 0.289,-3.914 -0.464,-12.26 -1.207,-13.384 -0.592,-0.736 -1.25,-0.973 -2.363,-1.156 -0.571,-0.139 -1.338,-0.198 -2.527,-0.193 -1.825,0.01 -16.056,0.022 -21.754,0.199 -1.357,0.042 -3.131,-0.133 -3.697,0.636 -0.566,0.769 -0.826,2.351 -0.932,4.016 -0.094,1.482 -0.306,2.628 -0.259,4.739 0.085,3.77 0.067,4.963 0.324,6.854 0.358,2.637 0.555,3.143 1.422,3.659 0.824,0.49 2.695,0.957 4.329,1.081 C 42.438,62.503 51.331,63.519 58.666,62.746 Z M 42,59.874 c -1.408,-0.245 -2.379,-0.78 -2.921,-1.611 -0.267,-0.409 -0.321,-0.685 -0.311,-1.577 0.011,-0.946 0.09,-1.258 0.632,-2.503 l 0.62,-1.422 -0.52,-0.465 c -0.286,-0.256 -0.703,-0.751 -0.927,-1.1 -0.354,-0.551 -0.408,-0.778 -0.414,-1.716 -0.005,-0.921 0.049,-1.17 0.365,-1.676 0.564,-0.905 1.787,-1.823 3.101,-2.331 1.035,-0.4 1.238,-0.436 2.393,-0.429 1.461,0.01 2.392,0.257 3.548,0.943 1.415,0.841 2.149,2.149 2.16,3.853 0.009,1.315 -0.303,1.933 -1.358,2.693 l -0.824,0.594 0.558,1.359 c 0.647,1.575 0.74,2.682 0.298,3.553 -0.343,0.677 -1.408,1.423 -2.363,1.654 -0.921,0.223 -3.206,0.325 -4.039,0.18 z m 3.068,-2.771 c 0.444,-0.192 0.362,-0.764 -0.381,-2.638 -0.368,-0.928 -0.668,-1.858 -0.668,-2.068 0,-0.506 0.608,-1.194 1.522,-1.726 0.726,-0.335 0.738,-0.429 0.679,-1.173 -0.064,-0.815 -0.349,-1.237 -1.071,-1.585 -1.031,-0.497 -2.236,-0.408 -3.292,0.243 -0.568,0.351 -1.109,1.104 -1.099,1.53 0.0135,0.571 0.437,1.237 1.047,1.647 1.163,0.782 1.289,1.628 0.58,3.913 -0.522,1.684 -0.507,1.555 -0.212,1.793 0.95,0.22 1.975,0.188 2.895,0.064 z m 8.452,-18.064 c 0,0 -0.114,-2.095 -0.321,-3.664 -0.207,-1.569 0.062,-3.146 -1.521,-4.189 C 50.223,30.229 47.306,29.134 42.959,29.434 37.755,29.794 37.303,31.867 36.692,32.712 35.714,34.064 35.722,34.839 35.298,37.011 l -0.237,1.97 c 6.333,0.114 12.823,-0.039 18.46,0.058 z"/>
</svg>
